<svg width="30" height="30" viewBox="0 0 30 30" fill="none" xmlns="http://www.w3.org/2000/svg">
<rect width="30" height="30" fill="#D6D7DB"/>
<path d="M24.2929 12.3438C23.9024 12.3438 23.5859 12.6603 23.5859 13.0508C23.5859 18.8692 18.8692 23.5859 13.0508 23.5859C12.6603 23.5859 12.3438 23.9024 12.3438 24.2929C12.3438 24.6834 12.6603 25 13.0508 25C19.6502 25 25 19.6502 25 13.0508C25 12.6603 24.6834 12.3438 24.2929 12.3438Z" fill="#005EB8"/>
<path d="M20.0254 16.875C20.7054 15.7658 21.363 14.2868 21.2336 12.2163C20.9656 7.92727 17.0809 4.67355 13.4127 5.02617C11.9766 5.16421 10.5021 6.33475 10.6331 8.43141C10.6901 9.34253 11.136 9.88028 11.8607 10.2937C12.5506 10.6872 13.4368 10.9365 14.4415 11.2191C15.6551 11.5604 17.0628 11.9438 18.1447 12.7412C19.4414 13.6967 20.3278 14.8045 20.0254 16.875Z" fill="#003B5C"/>
<path d="M6.22457 9.375C5.54461 10.4842 4.88703 11.9632 5.0164 14.0337C5.2844 18.3227 9.16909 21.5764 12.8373 21.2238C14.2733 21.0858 15.7479 19.9153 15.6169 17.8186C15.5599 16.9075 15.114 16.3697 14.3893 15.9563C13.6994 15.5628 12.8132 15.3135 11.8085 15.0309C10.5949 14.6896 9.18722 14.3062 8.10529 13.5088C6.80858 12.5533 5.92216 11.4455 6.22457 9.375Z" fill="#005EB8"/>
</svg>
