<svg viewBox="0 0 24 24" fill="none" xmlns="http://www.w3.org/2000/svg">
<rect width="24" height="24" fill="#282839" style="fill:#282839;fill:color(display-p3 0.1569 0.1569 0.2235);fill-opacity:1;"/>
<path d="M13.2784 14.8723C10.8585 15.3458 8.64136 13.5318 5.69573 13.8062C4.73613 13.8872 3.84551 14.2802 3 14.7735V17C3.70859 16.3111 5.17012 15.1471 7.36439 14.9905C10.3109 14.7735 12.5254 16.5469 14.969 16.0556C16.9108 15.6809 18.5789 13.7688 20.9999 13.6502V12.684C17.5964 11.6796 15.6551 14.418 13.2784 14.8723ZM12.3425 14.1819C14.8094 13.7092 16.8193 10.7525 20.4954 12.151C20.6567 12.2304 20.8174 12.2697 20.9999 12.3292V11.6391C20.2676 11.54 19.538 11.383 18.8293 11.1066C15.1509 9.68783 13.1406 12.6649 10.6751 13.1172C8.25379 13.6107 6.03837 11.7964 3.11587 12.0736H3V13.5904C3.54873 13.3541 4.14238 13.1766 4.7833 13.1172C7.70572 12.8418 9.92123 14.655 12.3425 14.1819ZM9.73835 12.3084C12.2064 11.8372 14.192 8.87981 17.8708 10.299C18.898 10.6937 19.9725 10.8513 21 10.9101V9.80657C19.5595 9.92507 17.824 9.86497 16.2032 9.23515C12.5255 7.8344 10.5395 10.7917 8.07325 11.265C6.3812 11.5997 4.7833 10.8115 3 10.3979V11.2257C5.51267 11.3039 7.54595 12.7436 9.73835 12.3084ZM6.5857 10.4373C5.37686 10.6729 4.21052 10.3588 3 10.0037V9.37223C3.61687 9.49073 4.2561 9.50971 4.89589 9.39315C7.38619 8.91786 9.37456 5.96231 13.0503 7.38278C16.5232 8.70186 20.4955 7.49958 20.9999 7.34174V8.80073C19.3998 9.09678 16.9556 9.27441 14.7179 8.4269C11.0406 7.00789 9.05269 9.964 6.5857 10.4373Z" fill="#D6DF23" style="fill:#D6DF23;fill:color(display-p3 0.8392 0.8745 0.1373);fill-opacity:1;"/>
</svg>
