<svg id="svg" version="1.1" xmlns="http://www.w3.org/2000/svg" xmlns:xlink="http://www.w3.org/1999/xlink" width="400" height="384.5433255269321" viewBox="0, 0, 400,384.5433255269321"><g id="svgg"><path id="path0" d="M0.000 192.308 C 0.000 298.077,0.130 384.615,0.288 384.615 C 0.447 384.615,0.577 298.207,0.577 192.596 L 0.577 0.577 200.000 0.577 L 399.423 0.577 399.616 192.692 L 399.809 384.808 399.904 192.404 L 400.000 0.000 200.000 0.000 L 0.000 0.000 0.000 192.308 M81.397 129.905 C 78.805 137.305,78.777 137.351,77.601 136.255 C 76.566 135.289,66.406 127.695,66.299 127.807 C 66.258 127.850,66.481 129.529,66.794 131.538 C 68.134 140.125,68.151 140.894,66.981 139.890 C 66.373 139.367,60.684 135.425,59.734 134.867 C 59.482 134.719,60.211 136.566,61.354 138.970 C 62.497 141.375,63.654 144.170,63.924 145.181 C 64.555 147.541,64.897 147.632,67.583 146.162 C 76.887 141.069,92.527 138.973,102.639 141.464 C 104.619 141.951,106.295 142.295,106.363 142.226 C 106.432 142.158,106.917 140.201,107.442 137.878 C 107.967 135.555,108.763 132.722,109.213 131.583 C 110.426 128.508,110.159 128.587,106.006 132.537 C 103.915 134.526,102.058 136.154,101.881 136.154 C 101.703 136.154,101.510 133.387,101.452 130.006 L 101.346 123.859 96.169 129.627 C 93.321 132.799,90.811 135.335,90.592 135.262 C 90.207 135.134,85.610 127.280,84.417 124.712 C 84.097 124.024,83.795 123.462,83.745 123.463 C 83.695 123.464,82.638 126.363,81.397 129.905 M86.538 144.209 C 80.538 144.943,76.307 146.146,69.038 149.187 C 67.981 149.629,66.384 150.172,65.489 150.393 C 64.404 150.661,63.125 151.471,61.643 152.830 C 60.422 153.950,58.471 155.563,57.308 156.414 C 52.841 159.683,47.188 166.124,43.309 172.363 C 41.063 175.976,41.069 176.041,43.714 176.362 C 46.727 176.727,46.677 176.614,45.036 179.333 C 40.119 187.475,37.755 194.277,36.965 202.554 C 36.641 205.944,36.541 205.905,41.285 204.231 C 43.083 203.596,44.697 203.077,44.873 203.077 C 45.049 203.077,45.195 207.274,45.199 212.404 C 45.205 221.315,45.252 221.908,46.253 225.717 C 47.374 229.980,49.910 236.190,50.628 236.428 C 51.707 236.786,61.606 226.227,65.285 220.795 C 65.706 220.172,66.177 221.953,66.583 225.704 C 67.212 231.506,66.515 239.535,64.801 246.254 C 64.538 247.283,64.642 247.369,68.186 249.048 C 79.297 254.311,91.420 253.852,103.887 247.695 C 105.620 246.840,107.072 246.186,107.115 246.243 C 107.330 246.528,108.462 251.610,108.462 252.291 C 108.462 253.418,108.783 253.307,111.959 251.077 C 120.812 244.864,127.422 235.378,129.799 225.477 C 130.647 221.946,130.745 221.905,132.711 224.253 C 134.683 226.609,134.696 226.598,136.177 221.331 C 140.501 205.948,139.144 193.107,131.993 181.731 C 130.541 179.422,130.458 179.661,131.686 182.608 C 135.984 192.920,136.739 205.738,133.668 216.250 C 132.884 218.934,133.062 218.928,130.702 216.346 C 128.505 213.941,128.077 213.776,128.077 215.332 C 128.077 224.653,121.309 238.703,113.794 244.982 C 110.853 247.440,110.967 247.473,110.193 243.942 C 109.342 240.059,109.327 240.050,106.608 241.907 C 95.857 249.245,82.750 250.947,71.013 246.530 L 68.757 245.681 68.998 244.090 C 70.845 231.904,70.728 225.544,68.501 216.909 C 67.019 211.165,67.334 211.214,63.974 216.210 C 59.954 222.185,58.017 224.655,54.684 228.055 L 51.836 230.962 51.121 229.386 C 48.488 223.578,47.716 209.605,49.561 201.172 C 50.535 196.721,50.930 196.963,45.601 198.742 C 40.343 200.497,40.738 200.635,41.381 197.258 C 42.540 191.175,46.089 183.498,50.366 177.823 C 53.328 173.892,53.390 174.196,49.515 173.637 C 47.056 173.282,46.981 172.988,48.697 170.449 C 53.382 163.518,60.551 156.464,59.734 159.588 C 59.192 161.660,61.531 167.043,63.409 168.049 C 64.058 168.396,64.055 168.294,63.358 166.229 C 60.550 157.911,65.998 151.233,72.788 154.670 C 73.582 155.072,74.231 155.318,74.231 155.218 C 74.231 154.559,73.153 152.755,72.355 152.078 L 71.403 151.272 73.610 150.262 C 80.304 147.197,86.569 145.999,94.792 146.212 L 100.371 146.356 102.714 148.659 L 105.057 150.962 104.948 149.343 C 104.888 148.453,104.928 147.636,105.037 147.528 C 105.323 147.241,112.972 149.715,114.944 150.732 C 117.298 151.945,116.616 151.134,113.950 149.550 C 107.063 145.456,95.214 143.148,86.538 144.209 M156.862 162.182 C 156.828 171.876,156.813 180.760,156.829 181.923 C 156.844 183.087,156.871 185.034,156.890 186.250 L 156.923 188.462 160.288 188.456 C 165.861 188.448,165.385 189.148,165.385 180.968 L 165.385 173.948 170.288 173.753 C 173.997 173.606,175.836 173.343,177.832 172.672 C 190.024 168.580,190.498 150.468,178.539 145.707 C 176.504 144.896,175.649 144.824,166.635 144.695 L 156.923 144.557 156.862 162.182 M295.161 145.373 C 293.512 146.040,292.308 148.000,292.308 150.017 C 292.308 154.894,299.131 156.591,301.366 152.270 C 303.476 148.188,299.401 143.658,295.161 145.373 M93.654 152.589 C 88.759 153.814,84.563 155.591,81.774 157.621 L 79.895 158.989 80.909 159.797 C 82.306 160.911,82.195 161.233,80.119 162.087 C 78.290 162.839,74.615 166.021,74.615 166.852 C 74.615 167.140,75.296 167.308,76.462 167.308 C 78.371 167.308,79.309 167.811,78.983 168.660 C 78.588 169.689,79.657 172.196,81.155 173.755 C 83.905 176.617,84.189 176.690,93.462 176.921 C 99.199 177.063,102.002 177.279,102.617 177.627 C 104.682 178.792,104.216 177.628,101.532 174.920 C 97.225 170.572,96.227 170.001,92.927 169.994 C 89.418 169.986,86.174 169.216,84.229 167.929 C 82.310 166.659,82.316 166.555,84.388 165.067 C 89.301 161.538,91.773 161.575,97.339 165.258 L 98.754 166.195 100.606 165.021 C 102.137 164.050,103.846 163.489,103.846 163.957 C 103.846 164.018,103.500 164.747,103.077 165.577 C 101.821 168.040,102.036 169.070,104.274 171.305 C 105.355 172.385,106.902 174.059,107.712 175.025 L 109.184 176.781 112.327 176.012 C 115.475 175.242,119.263 175.388,121.731 176.375 C 122.951 176.863,121.878 175.725,118.072 172.496 C 115.273 170.122,111.923 165.953,111.923 164.846 C 111.923 164.301,112.919 164.706,114.666 165.962 C 116.901 167.567,116.893 167.566,118.690 166.346 C 120.439 165.160,120.578 165.159,121.748 166.329 C 122.870 167.450,123.006 169.400,122.038 170.470 C 121.414 171.159,121.463 171.260,123.096 172.671 C 125.270 174.549,125.538 174.348,125.262 171.052 C 124.832 165.929,120.545 161.050,111.723 155.649 C 108.643 153.762,108.229 153.801,107.897 156.011 C 107.418 159.209,107.198 159.374,105.263 157.981 C 102.544 156.024,95.908 152.317,95.192 152.356 C 94.769 152.378,94.077 152.484,93.654 152.589 M174.846 153.041 C 177.341 154.174,178.269 155.808,178.269 159.065 C 178.269 164.226,176.123 165.934,169.615 165.951 L 165.577 165.962 165.472 159.135 L 165.367 152.308 169.318 152.316 C 172.337 152.323,173.641 152.494,174.846 153.041 M222.012 158.845 C 210.569 161.271,206.121 176.057,214.338 184.356 C 219.905 189.979,230.664 190.459,236.635 185.350 C 238.902 183.409,238.924 183.594,236.158 181.189 L 233.855 179.185 232.505 180.215 C 228.083 183.587,221.493 182.808,219.040 178.621 C 218.510 177.718,218.077 176.882,218.077 176.764 C 218.077 176.647,223.053 176.504,229.135 176.448 L 240.192 176.346 240.158 173.077 C 240.057 163.363,231.683 156.795,222.012 158.845 M257.996 158.809 C 256.382 159.144,253.894 160.742,253.170 161.911 C 252.529 162.945,251.924 162.904,251.918 161.827 C 251.903 159.343,251.735 159.231,248.032 159.231 L 244.615 159.231 244.615 173.609 L 244.615 187.987 245.481 188.219 C 245.957 188.347,247.688 188.453,249.327 188.456 L 252.308 188.462 252.317 185.673 C 252.373 169.559,252.527 168.401,254.852 166.572 C 256.887 164.971,260.249 165.779,261.637 168.203 C 261.968 168.780,262.175 172.011,262.308 178.654 L 262.500 188.269 264.423 188.394 C 265.481 188.463,267.255 188.407,268.365 188.270 L 270.385 188.022 270.385 178.998 C 270.385 167.678,271.093 165.775,275.308 165.771 C 279.339 165.766,279.766 166.937,280.000 178.654 L 280.192 188.269 284.214 188.269 L 288.235 188.269 288.121 177.709 C 287.995 166.070,287.715 164.444,285.381 161.785 C 281.687 157.579,273.692 157.584,269.994 161.796 L 268.801 163.156 267.352 161.586 C 265.119 159.167,261.481 158.088,257.996 158.809 M317.308 158.808 C 300.473 162.639,301.581 186.737,318.687 188.796 C 325.240 189.585,336.108 185.065,333.206 182.757 C 332.763 182.404,331.608 181.452,330.640 180.641 L 328.880 179.166 327.592 180.148 C 322.522 184.015,313.462 181.964,313.462 176.948 C 313.462 176.686,317.225 176.516,324.519 176.448 L 335.577 176.346 335.518 173.269 C 335.333 163.642,326.587 156.696,317.308 158.808 M203.226 159.519 C 201.393 160.560,200.575 161.255,199.831 162.401 C 198.939 163.775,198.592 163.498,198.269 161.153 L 198.005 159.231 194.579 159.231 L 191.154 159.231 191.154 173.597 L 191.154 187.964 194.096 188.213 C 195.715 188.350,197.434 188.462,197.916 188.462 L 198.793 188.462 198.916 179.904 C 199.080 168.416,200.345 166.154,206.599 166.154 L 208.846 166.154 208.846 162.500 L 208.846 158.846 206.629 158.846 C 205.225 158.846,203.976 159.093,203.226 159.519 M351.627 159.660 C 350.724 160.107,349.399 161.156,348.684 161.992 C 347.228 163.693,347.111 163.637,346.725 161.058 L 346.451 159.231 343.033 159.231 L 339.615 159.231 339.615 173.860 L 339.615 188.488 343.558 188.379 L 347.500 188.269 347.692 179.423 C 347.942 167.953,348.941 166.154,355.060 166.154 L 357.308 166.154 357.308 162.500 L 357.308 158.846 355.288 158.846 C 354.008 158.847,352.668 159.144,351.627 159.660 M293.168 173.750 L 293.269 188.269 297.115 188.269 L 300.962 188.269 301.062 173.750 L 301.163 159.231 297.115 159.231 L 293.068 159.231 293.168 173.750 M227.885 165.424 C 230.147 166.040,232.308 168.360,232.308 170.173 C 232.308 170.785,218.947 171.126,218.350 170.529 C 218.020 170.200,219.358 167.659,220.318 166.790 C 222.061 165.214,225.101 164.665,227.885 165.424 M322.799 165.408 C 325.222 166.081,328.364 169.585,327.404 170.544 C 326.965 170.984,313.462 170.792,313.462 170.347 C 313.462 166.858,318.474 164.207,322.799 165.408 M106.346 182.463 C 102.395 183.718,94.615 188.605,94.615 189.832 C 94.615 190.112,95.816 192.644,97.284 195.459 L 99.953 200.577 101.419 200.465 C 104.346 200.241,108.660 197.860,113.558 193.764 L 115.385 192.236 115.385 188.610 C 115.385 185.023,115.373 184.978,114.327 184.518 C 113.745 184.262,112.500 183.574,111.559 182.988 C 109.690 181.824,108.680 181.722,106.346 182.463 M122.019 183.727 L 120.000 185.139 120.000 188.856 C 120.000 192.154,120.092 192.656,120.814 193.306 C 121.972 194.349,123.614 196.855,124.313 198.651 L 124.912 200.186 125.687 197.675 C 127.065 193.215,127.110 191.412,125.963 186.615 C 124.803 181.765,124.813 181.773,122.019 183.727 M156.598 215.193 L 156.464 236.538 170.533 236.538 L 184.601 236.538 184.818 235.672 C 184.938 235.195,184.984 233.421,184.922 231.729 L 184.808 228.654 175.096 228.551 L 165.385 228.448 165.385 211.147 L 165.385 193.846 161.058 193.847 L 156.731 193.847 156.598 215.193 M115.262 200.007 C 114.666 200.186,113.281 201.008,112.185 201.834 C 108.906 204.305,107.010 205.378,105.027 205.886 L 103.147 206.367 104.747 209.433 C 106.822 213.413,107.754 213.445,113.550 209.734 C 115.086 208.751,115.492 209.423,115.695 213.285 L 115.868 216.587 117.009 215.505 C 118.593 214.002,120.560 210.959,121.509 208.543 C 123.581 203.270,120.125 198.547,115.262 200.007 M197.885 207.328 C 182.434 212.738,184.369 234.434,200.525 236.929 C 205.486 237.695,210.477 236.411,214.327 233.379 C 216.229 231.881,216.173 231.621,213.439 229.243 L 211.109 227.216 210.266 228.007 C 206.236 231.790,198.405 230.951,196.131 226.493 C 194.961 224.201,194.819 224.231,206.799 224.231 L 217.784 224.231 217.627 220.634 C 217.182 210.463,207.523 203.952,197.885 207.328 M231.923 207.451 C 216.377 212.843,218.998 236.131,235.231 236.854 C 239.217 237.031,241.065 236.452,243.590 234.235 C 245.220 232.804,245.195 232.797,245.900 234.837 L 246.422 236.346 249.942 236.457 L 253.462 236.567 253.462 221.938 L 253.462 207.308 250.015 207.308 L 246.569 207.308 246.108 208.846 C 245.558 210.683,245.115 210.756,243.669 209.247 C 241.251 206.723,236.234 205.955,231.923 207.451 M268.886 207.124 C 259.203 209.835,254.638 219.945,259.085 228.834 C 262.951 236.562,272.856 239.507,279.059 234.772 C 281.224 233.119,281.154 233.098,281.154 235.397 C 281.154 242.723,273.681 245.745,265.755 241.625 L 262.779 240.078 260.780 242.941 C 258.443 246.288,258.421 246.215,262.410 248.227 C 272.077 253.103,283.488 250.609,287.471 242.749 C 288.991 239.750,289.225 236.936,289.228 221.620 L 289.231 207.279 285.687 207.389 L 282.142 207.500 281.802 208.942 C 281.429 210.525,280.818 210.783,280.113 209.654 C 278.721 207.424,272.678 206.063,268.886 207.124 M337.496 207.438 C 321.993 213.204,324.252 234.677,340.601 236.951 C 345.785 237.672,350.637 236.396,354.024 233.422 C 355.825 231.841,355.766 231.560,353.159 229.302 L 350.933 227.373 349.986 228.135 C 345.443 231.790,338.252 230.934,335.925 226.461 C 334.678 224.064,334.282 224.147,346.342 224.291 C 358.398 224.436,357.692 224.582,357.692 221.944 C 357.692 211.072,347.469 203.729,337.496 207.438 M293.846 216.073 C 293.846 227.659,294.451 229.985,298.390 233.543 C 301.529 236.379,302.640 236.731,308.462 236.731 C 315.565 236.731,318.947 234.988,321.787 229.865 L 322.885 227.885 323.004 217.596 L 323.123 207.308 319.061 207.308 L 315.000 207.308 314.994 216.250 C 314.985 228.125,314.097 229.855,308.177 229.522 C 302.788 229.219,301.923 227.332,301.923 215.880 L 301.923 207.308 297.885 207.308 L 293.846 207.308 293.846 216.073 M207.070 214.362 C 208.484 215.441,209.615 217.169,209.615 218.250 C 209.615 218.767,208.667 218.846,202.474 218.846 L 195.333 218.846 195.596 217.981 C 196.926 213.602,203.397 211.561,207.070 214.362 M346.857 214.183 C 348.150 215.104,349.615 217.248,349.615 218.218 C 349.615 218.776,348.821 218.846,342.458 218.846 L 335.301 218.846 335.562 217.788 C 336.544 213.802,343.295 211.648,346.857 214.183 M240.846 214.716 C 246.311 217.318,246.972 224.591,242.082 228.321 C 238.833 230.799,232.628 229.445,230.829 225.865 C 227.255 218.756,233.869 211.395,240.846 214.716 M276.932 214.712 C 280.077 216.302,281.910 219.842,281.294 223.134 C 279.523 232.600,265.769 231.357,265.769 221.731 C 265.769 215.781,271.689 212.059,276.932 214.712 " stroke="none" fill="#f7f7f8" fill-rule="evenodd"></path><path id="path1" d="M0.947 1.250 C 0.847 1.514,0.809 87.750,0.863 192.885 L 0.962 384.038 200.000 384.038 L 399.038 384.038 399.038 192.500 L 399.038 0.962 200.084 0.865 C 41.122 0.788,1.093 0.865,0.947 1.250 M87.292 129.226 C 89.025 132.402,90.522 135.000,90.619 135.000 C 90.910 135.000,92.876 132.877,99.791 125.096 C 101.864 122.763,101.893 122.822,102.010 129.613 L 102.115 135.764 104.038 133.894 C 106.465 131.536,110.066 128.462,110.402 128.462 C 110.543 128.462,110.011 130.421,109.221 132.816 C 108.431 135.211,107.573 138.430,107.313 139.968 C 106.881 142.532,106.772 142.750,106.017 142.573 C 91.855 139.249,77.555 140.891,66.445 147.117 L 64.620 148.140 64.195 147.051 C 63.961 146.452,63.513 145.096,63.199 144.038 C 62.886 142.981,61.705 140.357,60.575 138.208 C 57.998 133.306,58.057 133.271,63.127 136.714 L 67.308 139.552 67.305 138.334 C 67.303 137.150,66.450 131.082,65.930 128.558 C 65.604 126.974,65.982 126.981,68.110 128.598 C 69.965 130.009,77.093 135.352,77.914 135.948 C 78.724 136.536,79.516 134.785,82.118 126.657 C 83.605 122.012,83.264 121.842,87.292 129.226 M100.385 144.389 C 106.133 145.416,112.007 147.695,116.154 150.507 C 119.454 152.744,119.122 153.225,115.520 151.424 C 113.411 150.370,105.966 147.692,105.143 147.692 C 105.038 147.692,105.067 148.451,105.206 149.378 C 105.568 151.792,104.990 151.803,102.933 149.420 C 99.161 145.051,86.531 145.231,75.680 149.808 L 72.322 151.225 73.250 152.441 C 75.242 155.052,75.391 156.759,73.511 155.420 C 69.868 152.826,64.732 154.374,63.515 158.433 C 62.687 161.198,63.349 166.709,64.709 168.375 C 65.280 169.073,64.819 169.367,63.913 168.882 C 61.705 167.700,59.231 163.125,59.231 160.222 L 59.231 159.166 57.668 160.404 C 54.952 162.555,47.449 171.988,47.889 172.699 C 47.987 172.858,49.197 173.201,50.577 173.462 C 53.632 174.038,53.775 174.228,52.373 175.842 C 47.566 181.379,43.879 188.612,42.121 195.953 C 41.079 200.301,41.074 200.260,42.572 199.485 C 43.973 198.761,50.459 196.869,50.703 197.113 C 50.804 197.214,50.600 198.381,50.249 199.706 C 48.177 207.539,48.313 217.543,50.614 226.385 L 51.667 230.431 54.705 227.427 C 57.449 224.714,61.212 219.807,65.194 213.750 C 67.313 210.525,67.336 210.547,68.979 217.365 C 71.177 226.483,71.212 239.213,69.056 244.644 C 68.870 245.112,69.412 245.485,71.427 246.282 C 82.438 250.631,96.720 248.640,106.884 241.337 C 109.386 239.540,109.382 239.538,110.382 243.259 L 111.257 246.517 112.263 245.798 C 119.684 240.490,125.946 228.934,127.285 218.077 C 127.928 212.872,127.768 212.985,130.555 215.747 L 133.002 218.173 133.428 216.106 C 136.414 201.617,135.440 190.294,130.348 180.314 C 129.438 178.529,129.714 177.833,130.775 179.237 C 139.601 190.917,141.377 207.011,135.730 224.135 C 134.775 227.029,134.481 227.068,132.500 224.558 L 130.962 222.608 130.631 223.900 C 127.668 235.465,121.069 245.407,112.579 251.092 C 111.738 251.655,110.598 252.417,110.044 252.786 C 108.501 253.816,108.203 253.626,107.939 251.442 C 107.806 250.332,107.513 248.769,107.289 247.970 L 106.881 246.518 105.075 247.490 C 92.376 254.325,78.616 254.903,67.438 249.073 C 63.991 247.275,64.203 248.108,65.427 241.154 C 66.493 235.096,66.771 228.775,66.147 224.766 C 65.599 221.240,65.422 221.019,64.410 222.596 C 61.706 226.810,51.938 236.923,50.571 236.923 C 50.316 236.923,49.496 235.582,48.749 233.942 C 45.488 226.786,44.423 220.592,44.717 210.481 C 44.847 206.026,44.784 203.462,44.546 203.462 C 44.339 203.462,43.102 203.881,41.796 204.394 C 40.491 204.907,38.774 205.499,37.981 205.709 L 36.538 206.092 36.550 204.296 C 36.599 196.974,39.528 187.654,44.209 179.925 C 45.955 177.043,45.995 176.923,45.211 176.923 C 44.904 176.923,43.782 176.736,42.717 176.508 L 40.781 176.093 41.412 174.873 C 41.758 174.203,42.335 173.221,42.692 172.692 C 43.049 172.163,43.836 170.952,44.440 170.000 C 47.637 164.966,52.710 159.521,58.069 155.372 C 59.016 154.639,60.530 153.333,61.433 152.471 C 62.636 151.322,63.924 150.612,66.249 149.815 C 67.995 149.216,70.112 148.383,70.954 147.964 C 77.897 144.506,91.677 142.832,100.385 144.389 M179.231 145.628 C 190.389 151.007,190.502 166.667,179.423 172.418 C 177.205 173.570,176.895 173.622,171.450 173.773 L 165.786 173.930 165.681 181.292 L 165.577 188.654 161.058 188.762 L 156.538 188.871 156.538 166.522 L 156.538 144.174 166.635 144.299 L 176.731 144.423 179.231 145.628 M299.597 145.183 C 301.207 146.016,302.308 148.031,302.308 150.147 C 302.308 155.108,295.298 156.877,292.677 152.577 C 289.952 148.109,294.943 142.776,299.597 145.183 M99.771 154.118 C 101.060 154.888,103.166 156.180,104.450 156.990 C 107.345 158.815,107.210 158.831,107.509 156.635 C 108.025 152.834,108.159 152.838,114.154 156.808 C 121.813 161.881,125.769 167.164,125.769 172.319 C 125.769 175.246,125.483 175.342,123.123 173.201 C 121.297 171.545,120.639 170.385,121.525 170.385 C 123.045 170.385,122.498 166.604,120.889 165.987 C 120.306 165.763,118.293 166.647,117.886 167.305 C 117.445 168.019,116.359 167.695,114.657 166.342 C 113.729 165.604,112.819 165.000,112.637 165.000 C 111.938 165.000,115.275 169.728,116.923 171.072 C 121.915 175.143,124.443 178.267,121.442 176.657 C 119.626 175.682,113.560 175.701,110.997 176.690 L 109.109 177.418 108.314 176.305 C 107.876 175.693,106.259 173.862,104.721 172.236 C 101.576 168.913,101.273 167.873,102.751 165.482 L 103.579 164.142 102.655 164.418 C 101.828 164.666,100.996 165.154,99.369 166.344 C 99.014 166.604,98.630 166.577,98.173 166.259 C 91.872 161.884,89.607 161.733,84.683 165.359 C 82.632 166.871,82.841 167.231,86.575 168.615 C 88.484 169.322,90.029 169.616,91.849 169.618 C 96.229 169.621,97.068 170.034,101.307 174.279 C 105.642 178.618,105.668 178.763,101.948 177.917 C 99.979 177.469,97.444 177.309,92.774 177.337 C 83.371 177.395,78.462 174.518,78.462 168.948 C 78.462 167.608,78.496 167.623,75.192 167.532 C 74.388 167.510,74.069 167.325,74.140 166.923 C 74.303 166.001,78.894 161.967,80.312 161.499 L 81.604 161.072 80.606 160.030 L 79.607 158.988 80.477 158.197 C 82.996 155.906,88.242 153.533,92.885 152.584 C 95.923 151.963,96.303 152.048,99.771 154.118 M165.769 159.265 L 165.769 165.837 169.973 165.707 C 175.761 165.528,177.679 164.082,178.000 159.655 C 178.352 154.788,175.842 152.692,169.659 152.692 L 165.769 152.692 165.769 159.265 M230.087 158.842 C 236.461 160.810,240.286 165.812,240.678 172.689 C 240.924 176.997,241.770 176.707,229.340 176.581 C 217.540 176.462,217.537 176.462,219.888 179.256 C 222.634 182.520,229.484 182.813,232.326 179.788 C 233.538 178.498,233.696 178.549,236.538 181.125 L 239.038 183.392 237.696 184.790 C 230.151 192.651,214.695 189.719,210.769 179.682 C 205.990 167.461,217.565 154.974,230.087 158.842 M263.571 158.848 C 265.436 159.425,266.406 159.993,267.402 161.096 L 268.735 162.572 270.192 161.106 C 274.099 157.175,281.767 157.382,285.487 161.520 C 288.108 164.435,288.194 164.918,288.364 177.596 L 288.514 188.846 284.315 188.846 L 280.116 188.846 279.868 185.096 C 279.731 183.034,279.618 178.546,279.617 175.124 L 279.615 168.901 278.320 167.527 C 276.284 165.369,273.219 165.715,271.518 168.295 C 270.834 169.333,270.774 170.181,270.772 178.935 L 270.769 188.447 269.904 188.663 C 269.428 188.783,267.481 188.829,265.577 188.767 L 262.115 188.654 261.918 179.038 C 261.681 167.458,261.461 166.713,258.155 166.269 C 253.758 165.680,253.077 167.411,253.077 179.177 C 253.077 189.836,253.570 188.846,248.260 188.846 C 243.811 188.846,244.123 189.458,244.165 180.821 C 244.184 176.879,244.206 170.316,244.215 166.236 L 244.231 158.818 247.980 158.928 L 251.729 159.038 252.073 160.674 L 252.417 162.309 253.612 160.933 C 255.854 158.352,259.495 157.590,263.571 158.848 M324.735 158.685 C 331.802 160.516,337.596 169.200,335.999 175.564 L 335.755 176.538 324.800 176.538 C 312.338 176.538,312.393 176.521,315.288 179.557 C 318.256 182.668,323.647 182.773,327.550 179.796 C 329.174 178.557,329.035 178.513,331.896 181.164 L 334.370 183.456 333.435 184.473 C 329.072 189.216,319.779 190.737,313.635 187.712 C 296.689 179.369,306.414 153.937,324.735 158.685 M209.038 162.692 L 209.038 166.731 207.257 166.607 C 200.678 166.152,199.631 168.008,199.493 180.385 L 199.401 188.654 195.407 188.764 C 193.210 188.825,191.257 188.719,191.067 188.528 C 190.682 188.143,190.234 160.697,190.594 159.562 C 190.794 158.931,191.247 158.846,194.411 158.846 L 198.002 158.846 198.424 160.057 C 198.656 160.724,198.846 161.620,198.846 162.049 C 198.846 162.688,199.147 162.516,200.494 161.110 C 202.408 159.113,203.977 158.497,206.923 158.588 L 209.038 158.654 209.038 162.692 M357.500 162.644 L 357.500 166.635 354.731 166.689 C 348.943 166.803,348.321 168.006,348.077 179.546 L 347.885 188.654 343.654 188.654 L 339.423 188.654 339.322 173.750 L 339.222 158.846 342.842 158.846 L 346.463 158.846 346.885 160.057 C 347.118 160.724,347.308 161.610,347.308 162.027 C 347.308 162.647,347.578 162.506,348.800 161.248 C 350.582 159.412,352.954 158.478,355.577 158.579 L 357.500 158.654 357.500 162.644 M301.346 173.846 L 301.346 188.654 297.115 188.654 L 292.885 188.654 292.784 173.737 L 292.683 158.821 297.015 158.930 L 301.346 159.038 301.346 173.846 M221.976 166.216 C 220.401 166.995,218.851 168.823,218.848 169.904 C 218.846 170.270,220.454 170.385,225.606 170.385 L 232.365 170.385 231.470 168.762 C 229.707 165.566,225.544 164.450,221.976 166.216 M317.493 165.921 C 316.166 166.499,313.846 168.980,313.846 169.821 C 313.846 170.295,314.921 170.385,320.577 170.385 C 324.279 170.385,327.308 170.252,327.308 170.089 C 327.308 167.034,321.044 164.373,317.493 165.921 M112.692 183.210 L 115.577 184.831 115.686 188.682 L 115.794 192.534 111.540 195.716 C 105.766 200.036,100.862 202.103,99.725 200.696 C 99.185 200.027,95.263 192.455,94.629 190.856 C 93.998 189.265,94.300 188.900,98.671 185.961 C 105.247 181.540,108.562 180.890,112.692 183.210 M125.996 184.801 C 126.958 187.959,127.130 193.263,126.380 196.636 C 125.484 200.660,125.014 200.922,123.684 198.140 C 123.098 196.914,121.943 195.180,121.117 194.285 L 119.615 192.659 119.615 188.893 L 119.615 185.128 122.019 183.342 C 124.779 181.291,124.945 181.352,125.996 184.801 M165.769 210.769 L 165.769 228.077 175.397 228.077 L 185.025 228.077 184.916 232.404 L 184.808 236.731 170.577 236.731 L 156.346 236.731 156.444 215.385 C 156.499 203.644,156.542 193.909,156.541 193.750 C 156.539 193.591,158.615 193.462,161.154 193.462 L 165.769 193.462 165.769 210.769 M120.820 201.251 C 123.513 205.600,122.418 210.389,117.548 215.552 C 115.704 217.508,115.515 217.331,115.293 213.445 C 115.046 209.112,115.337 209.270,111.389 211.334 C 106.656 213.810,106.567 213.789,104.444 209.615 C 103.358 207.482,102.869 206.150,103.168 206.145 C 104.789 206.114,108.601 204.037,113.422 200.558 C 114.495 199.784,115.184 199.616,117.268 199.616 L 119.808 199.617 120.820 201.251 M206.372 206.571 C 213.024 207.787,217.616 213.364,217.993 220.682 C 218.232 225.337,219.041 225.026,206.771 224.999 C 201.037 224.987,196.205 224.982,196.033 224.989 C 195.861 224.995,196.088 225.655,196.538 226.456 C 198.926 230.705,205.200 231.341,209.914 227.812 L 211.174 226.868 212.991 228.396 C 213.990 229.236,215.206 230.350,215.693 230.873 L 216.578 231.823 214.815 233.375 C 204.637 242.333,187.922 236.218,187.034 223.212 C 186.284 212.236,195.234 204.535,206.372 206.571 M241.434 207.365 C 242.329 207.790,243.558 208.603,244.167 209.171 L 245.273 210.205 245.712 208.564 L 246.151 206.923 250.003 206.923 L 253.855 206.923 253.755 221.827 L 253.654 236.731 249.813 236.692 L 245.972 236.653 245.627 235.153 C 245.183 233.218,245.263 233.252,243.985 234.456 C 235.676 242.285,221.154 234.313,221.154 221.923 C 221.154 211.178,232.425 203.087,241.434 207.365 M348.077 206.965 C 353.844 208.962,358.077 215.269,358.077 221.866 C 358.077 225.139,358.592 225.000,346.462 225.000 C 340.581 225.000,335.769 225.133,335.769 225.295 C 335.769 226.126,337.904 228.554,339.229 229.230 C 342.352 230.823,350.385 229.381,350.385 227.226 C 350.385 226.394,351.604 227.161,353.795 229.372 L 356.222 231.820 354.746 233.258 C 347.249 240.557,332.947 238.298,328.483 229.110 C 322.241 216.261,334.596 202.297,348.077 206.965 M277.115 207.257 C 277.962 207.642,279.198 208.417,279.863 208.979 C 281.413 210.287,281.423 210.284,281.731 208.462 L 281.991 206.923 285.826 206.923 L 289.661 206.923 289.542 223.173 L 289.423 239.423 288.213 241.985 C 283.595 251.758,268.428 254.305,259.439 246.815 L 258.300 245.867 259.728 243.799 C 262.607 239.629,262.909 239.346,263.712 240.054 C 269.876 245.490,279.745 243.526,280.598 236.694 C 280.923 234.096,280.732 233.870,279.262 235.107 C 272.845 240.507,261.382 236.226,257.860 227.115 C 253.419 215.626,266.310 202.331,277.115 207.257 M302.379 216.058 C 302.532 227.594,303.322 229.231,308.741 229.231 C 313.928 229.231,314.615 227.691,314.615 216.064 L 314.615 206.923 319.038 206.923 L 323.462 206.923 323.462 216.727 C 323.462 227.424,323.270 228.593,320.966 231.917 C 316.670 238.116,305.161 239.466,298.897 234.505 C 294.245 230.821,293.462 228.201,293.462 216.332 L 293.462 206.923 297.859 206.923 L 302.257 206.923 302.379 216.058 M199.365 214.203 C 197.971 214.836,195.769 217.263,195.769 218.166 C 195.769 218.329,198.798 218.462,202.500 218.462 C 209.868 218.462,209.824 218.478,208.452 216.228 C 206.917 213.709,202.580 212.743,199.365 214.203 M339.378 214.197 C 337.855 214.889,335.769 217.096,335.769 218.017 C 335.769 218.336,337.671 218.462,342.526 218.462 L 349.283 218.462 349.010 217.604 C 347.883 214.051,343.283 212.424,339.378 214.197 M235.093 214.558 C 232.518 215.299,230.000 218.884,230.000 221.808 C 230.000 229.322,240.319 232.095,243.933 225.552 C 247.322 219.417,241.850 212.611,235.093 214.558 M270.078 215.049 C 264.645 217.739,264.705 226.023,270.176 228.508 C 274.605 230.519,279.443 228.352,280.615 223.831 C 282.308 217.308,276.051 212.093,270.078 215.049 " stroke="none" fill="#1d0423" fill-rule="evenodd"></path><path id="path2" d="M101.695 129.615 C 101.695 133.106,101.753 134.534,101.825 132.788 C 101.896 131.043,101.896 128.188,101.825 126.442 C 101.753 124.697,101.695 126.125,101.695 129.615 M99.783 125.096 L 98.654 126.346 99.904 125.217 C 101.069 124.164,101.331 123.846,101.033 123.846 C 100.967 123.846,100.405 124.409,99.783 125.096 M103.441 134.519 L 102.115 135.962 103.558 134.636 C 104.351 133.907,105.000 133.258,105.000 133.194 C 105.000 132.900,104.675 133.177,103.441 134.519 M67.360 138.810 C 67.308 139.725,67.298 139.727,66.442 139.016 L 65.577 138.298 66.432 139.224 C 67.400 140.272,67.835 140.106,67.583 138.783 L 67.412 137.885 67.360 138.810 M91.447 140.657 C 91.925 140.749,92.618 140.745,92.985 140.649 C 93.353 140.553,92.962 140.477,92.115 140.482 C 91.269 140.486,90.968 140.565,91.447 140.657 M105.052 150.156 L 105.000 151.273 104.135 150.540 L 103.269 149.808 104.010 150.682 C 104.869 151.696,105.535 151.310,105.277 149.948 C 105.127 149.155,105.098 149.181,105.052 150.156 M72.147 151.102 C 72.034 151.286,72.327 151.762,72.798 152.160 L 73.654 152.885 72.957 152.059 C 72.420 151.422,72.376 151.188,72.765 151.032 C 73.103 150.896,73.118 150.820,72.811 150.800 C 72.559 150.783,72.260 150.919,72.147 151.102 M165.641 152.564 C 165.500 152.705,165.387 153.008,165.391 153.237 C 165.394 153.496,165.508 153.478,165.692 153.189 C 165.875 152.900,167.290 152.676,169.436 152.595 L 172.885 152.466 169.391 152.387 C 167.470 152.343,165.782 152.423,165.641 152.564 M165.531 161.346 C 165.532 163.885,165.594 164.873,165.670 163.543 C 165.745 162.212,165.744 160.135,165.668 158.927 C 165.592 157.719,165.531 158.808,165.531 161.346 M187.423 158.846 C 187.423 160.010,187.495 160.486,187.583 159.904 C 187.671 159.322,187.671 158.370,187.583 157.788 C 187.495 157.207,187.423 157.683,187.423 158.846 M80.452 158.198 L 79.616 159.087 80.866 160.217 L 82.115 161.346 81.063 160.177 L 80.010 159.007 80.860 158.157 C 81.327 157.690,81.615 157.308,81.499 157.308 C 81.383 157.308,80.912 157.708,80.452 158.198 M178.166 159.231 C 178.166 159.971,178.245 160.274,178.342 159.904 C 178.439 159.534,178.439 158.928,178.342 158.558 C 178.245 158.188,178.166 158.490,178.166 159.231 M224.126 158.355 C 224.809 158.439,226.020 158.441,226.818 158.358 C 227.616 158.274,227.058 158.205,225.577 158.203 C 224.096 158.201,223.443 158.270,224.126 158.355 M259.524 158.349 C 260.002 158.441,260.694 158.437,261.062 158.341 C 261.430 158.245,261.038 158.170,260.192 158.174 C 259.346 158.178,259.045 158.257,259.524 158.349 M277.019 158.342 C 277.389 158.439,277.995 158.439,278.365 158.342 C 278.736 158.245,278.433 158.166,277.692 158.166 C 276.952 158.166,276.649 158.245,277.019 158.342 M319.519 158.355 C 320.207 158.440,321.332 158.440,322.019 158.355 C 322.707 158.270,322.144 158.200,320.769 158.200 C 319.394 158.200,318.832 158.270,319.519 158.355 M354.327 158.737 C 354.909 158.825,355.861 158.825,356.442 158.737 C 357.024 158.649,356.548 158.577,355.385 158.577 C 354.221 158.577,353.745 158.649,354.327 158.737 M58.233 159.712 L 57.500 160.577 58.340 159.867 C 59.179 159.158,59.180 159.159,59.333 160.636 L 59.486 162.115 59.551 160.481 C 59.624 158.640,59.300 158.451,58.233 159.712 M51.538 160.962 C 50.604 161.913,49.926 162.692,50.032 162.692 C 50.138 162.692,50.989 161.913,51.923 160.962 C 52.857 160.010,53.535 159.231,53.429 159.231 C 53.324 159.231,52.473 160.010,51.538 160.962 M301.273 161.346 C 301.275 162.615,301.347 163.088,301.433 162.397 C 301.518 161.706,301.516 160.667,301.429 160.089 C 301.341 159.511,301.271 160.077,301.273 161.346 M62.808 161.538 C 62.808 162.702,62.880 163.178,62.968 162.596 C 63.056 162.014,63.056 161.063,62.968 160.481 C 62.880 159.899,62.808 160.375,62.808 161.538 M190.500 161.538 C 190.500 162.702,190.572 163.178,190.660 162.596 C 190.748 162.014,190.748 161.063,190.660 160.481 C 190.572 159.899,190.500 160.375,190.500 161.538 M266.923 160.962 C 267.641 161.702,268.314 162.308,268.420 162.308 C 268.526 162.308,268.025 161.702,267.308 160.962 C 266.590 160.221,265.916 159.615,265.811 159.615 C 265.705 159.615,266.205 160.221,266.923 160.962 M198.519 161.612 C 198.456 162.744,199.014 163.355,199.456 162.639 C 199.624 162.368,199.568 162.292,199.316 162.447 C 199.064 162.603,198.835 162.283,198.738 161.641 L 198.577 160.577 198.519 161.612 M331.346 162.692 C 332.172 163.538,332.935 164.231,333.041 164.231 C 333.146 164.231,332.557 163.538,331.731 162.692 C 330.905 161.846,330.142 161.154,330.036 161.154 C 329.930 161.154,330.520 161.846,331.346 162.692 M309.210 162.981 L 307.885 164.423 309.327 163.098 C 310.669 161.864,310.946 161.538,310.652 161.538 C 310.588 161.538,309.939 162.188,309.210 162.981 M75.559 165.096 L 74.038 166.731 75.673 165.210 C 77.193 163.796,77.484 163.462,77.193 163.462 C 77.131 163.462,76.395 164.197,75.559 165.096 M190.537 169.615 C 190.537 172.683,190.597 173.938,190.670 172.404 C 190.743 170.870,190.743 168.361,190.670 166.827 C 190.597 165.293,190.537 166.548,190.537 169.615 M208.846 165.869 C 208.846 166.206,208.543 166.561,208.173 166.658 C 207.542 166.823,207.543 166.837,208.185 166.878 C 208.881 166.924,209.525 165.935,209.086 165.496 C 208.954 165.364,208.846 165.532,208.846 165.869 M62.308 167.500 C 63.025 168.240,63.699 168.846,63.805 168.846 C 63.911 168.846,63.410 168.240,62.692 167.500 C 61.975 166.760,61.301 166.154,61.195 166.154 C 61.089 166.154,61.590 166.760,62.308 167.500 M315.168 167.404 L 314.038 168.654 315.288 167.524 C 315.976 166.903,316.538 166.340,316.538 166.274 C 316.538 165.977,316.221 166.239,315.168 167.404 M78.559 169.038 C 78.563 169.885,78.642 170.185,78.734 169.707 C 78.826 169.229,78.822 168.536,78.726 168.169 C 78.630 167.801,78.554 168.192,78.559 169.038 M301.306 173.654 C 301.306 176.615,301.367 177.776,301.440 176.233 C 301.513 174.690,301.512 172.267,301.439 170.849 C 301.365 169.430,301.305 170.692,301.306 173.654 M104.423 171.923 C 105.679 173.192,106.793 174.231,106.899 174.231 C 107.005 174.231,106.064 173.192,104.808 171.923 C 103.552 170.654,102.438 169.615,102.332 169.615 C 102.226 169.615,103.167 170.654,104.423 171.923 M218.560 170.000 C 218.692 170.484,219.796 170.579,225.416 170.592 L 232.115 170.606 225.594 170.486 C 221.006 170.401,218.973 170.226,218.737 169.894 C 218.496 169.554,218.447 169.583,218.560 170.000 M279.774 177.115 C 279.775 180.923,279.832 182.429,279.902 180.461 C 279.972 178.494,279.972 175.378,279.901 173.538 C 279.831 171.698,279.774 173.308,279.774 177.115 M319.327 170.670 C 320.755 170.744,323.091 170.744,324.519 170.670 C 325.947 170.596,324.779 170.535,321.923 170.535 C 319.067 170.535,317.899 170.596,319.327 170.670 M252.858 179.615 C 252.858 184.587,252.913 186.620,252.980 184.135 C 253.047 181.649,253.047 177.582,252.980 175.096 C 252.913 172.611,252.858 174.644,252.858 179.615 M121.154 171.274 C 121.154 171.340,121.716 171.903,122.404 172.524 L 123.654 173.654 122.524 172.404 C 121.471 171.239,121.154 170.977,121.154 171.274 M199.378 175.962 C 199.378 178.500,199.441 179.488,199.516 178.158 C 199.591 176.828,199.591 174.751,199.515 173.543 C 199.438 172.335,199.377 173.423,199.378 175.962 M209.742 174.038 C 209.743 175.519,209.813 176.078,209.896 175.280 C 209.979 174.482,209.978 173.270,209.893 172.588 C 209.808 171.905,209.740 172.558,209.742 174.038 M101.346 174.615 C 102.816 176.096,104.104 177.308,104.210 177.308 C 104.316 177.308,103.200 176.096,101.731 174.615 C 100.261 173.135,98.973 171.923,98.867 171.923 C 98.761 171.923,99.877 173.135,101.346 174.615 M347.780 180.275 L 347.692 188.436 343.558 188.559 L 339.423 188.683 343.570 188.764 C 348.585 188.863,348.121 189.786,347.981 179.990 L 347.868 172.115 347.780 180.275 M120.577 174.615 C 121.619 175.673,122.558 176.538,122.663 176.538 C 122.769 176.538,122.003 175.673,120.962 174.615 C 119.920 173.558,118.981 172.692,118.875 172.692 C 118.769 172.692,119.535 173.558,120.577 174.615 M125.429 173.526 C 125.405 174.090,125.168 174.639,124.904 174.745 C 124.527 174.897,124.530 174.946,124.916 174.970 C 125.526 175.007,125.894 174.122,125.654 173.196 C 125.533 172.727,125.459 172.834,125.429 173.526 M304.712 174.038 C 304.717 174.885,304.795 175.185,304.887 174.707 C 304.979 174.229,304.976 173.536,304.880 173.169 C 304.783 172.801,304.708 173.192,304.712 174.038 M335.874 174.231 C 335.874 175.183,335.949 175.572,336.041 175.096 C 336.132 174.620,336.132 173.841,336.041 173.365 C 335.949 172.889,335.874 173.279,335.874 174.231 M80.000 173.197 C 80.000 173.263,80.563 173.826,81.250 174.447 L 82.500 175.577 81.370 174.327 C 80.317 173.162,80.000 172.900,80.000 173.197 M270.474 175.000 C 270.474 175.740,270.553 176.043,270.650 175.673 C 270.746 175.303,270.746 174.697,270.650 174.327 C 270.553 173.957,270.474 174.260,270.474 175.000 M237.788 176.804 C 238.159 176.900,238.764 176.900,239.135 176.804 C 239.505 176.707,239.202 176.628,238.462 176.628 C 237.721 176.628,237.418 176.707,237.788 176.804 M129.621 178.750 C 129.637 179.518,130.278 180.062,130.497 179.493 C 130.618 179.179,130.613 178.818,130.486 178.691 C 130.163 178.368,129.614 178.405,129.621 178.750 M165.466 183.930 L 165.385 188.437 160.865 188.559 L 156.346 188.681 160.877 188.763 C 166.219 188.861,165.839 189.268,165.672 183.629 L 165.548 179.423 165.466 183.930 M225.288 182.195 C 225.764 182.286,226.543 182.286,227.019 182.195 C 227.495 182.103,227.106 182.028,226.154 182.028 C 225.202 182.028,224.813 182.103,225.288 182.195 M320.486 182.199 C 321.071 182.287,321.936 182.285,322.409 182.194 C 322.882 182.103,322.404 182.030,321.346 182.033 C 320.288 182.036,319.901 182.111,320.486 182.199 M301.230 185.275 L 301.154 188.436 297.019 188.559 L 292.885 188.683 297.031 188.764 C 301.840 188.859,301.632 189.038,301.441 184.964 L 301.307 182.115 301.230 185.275 M333.641 183.014 C 333.826 183.341,333.464 184.041,332.647 184.937 L 331.361 186.346 332.879 184.910 C 334.143 183.715,334.309 183.393,333.873 182.987 C 333.448 182.592,333.404 182.597,333.641 183.014 M309.038 184.615 C 309.865 185.462,310.627 186.154,310.733 186.154 C 310.839 186.154,310.249 185.462,309.423 184.615 C 308.597 183.769,307.834 183.077,307.729 183.077 C 307.623 183.077,308.212 183.769,309.038 184.615 M199.295 186.622 L 199.231 188.436 195.096 188.559 L 190.962 188.683 195.108 188.764 C 199.724 188.855,199.776 188.827,199.513 186.290 C 199.367 184.872,199.357 184.886,199.295 186.622 M262.263 188.572 C 262.431 188.739,264.283 188.825,266.380 188.762 L 270.192 188.649 266.075 188.459 C 263.811 188.355,262.095 188.406,262.263 188.572 M246.442 188.745 C 247.553 188.823,249.370 188.823,250.481 188.745 C 251.591 188.667,250.683 188.604,248.462 188.604 C 246.240 188.604,245.332 188.667,246.442 188.745 M282.019 188.746 C 283.236 188.822,285.226 188.822,286.442 188.746 C 287.659 188.669,286.663 188.607,284.231 188.607 C 281.798 188.607,280.803 188.669,282.019 188.746 M165.571 210.769 L 165.577 228.269 175.289 228.279 L 185.000 228.289 175.389 228.177 L 165.777 228.064 165.671 210.666 L 165.565 193.269 165.571 210.769 M138.987 205.192 C 138.988 207.308,139.052 208.124,139.130 207.006 C 139.208 205.889,139.207 204.158,139.128 203.160 C 139.049 202.162,138.986 203.077,138.987 205.192 M202.019 206.429 C 202.601 206.517,203.553 206.517,204.135 206.429 C 204.716 206.341,204.240 206.269,203.077 206.269 C 201.913 206.269,201.438 206.341,202.019 206.429 M235.865 206.419 C 236.236 206.516,236.841 206.516,237.212 206.419 C 237.582 206.322,237.279 206.243,236.538 206.243 C 235.798 206.243,235.495 206.322,235.865 206.419 M44.712 208.269 C 44.717 209.115,44.795 209.416,44.887 208.938 C 44.979 208.459,44.976 207.767,44.880 207.399 C 44.783 207.032,44.708 207.423,44.712 208.269 M253.577 208.846 C 253.577 210.010,253.649 210.486,253.737 209.904 C 253.825 209.322,253.825 208.370,253.737 207.788 C 253.649 207.207,253.577 207.683,253.577 208.846 M293.629 216.538 C 293.629 221.933,293.683 224.139,293.749 221.442 C 293.815 218.745,293.815 214.332,293.749 211.635 C 293.683 208.938,293.629 211.144,293.629 216.538 M314.780 215.385 C 314.780 220.144,314.835 222.091,314.903 219.712 C 314.970 217.332,314.970 213.438,314.903 211.058 C 314.835 208.678,314.780 210.625,314.780 215.385 M280.084 209.436 C 280.660 210.041,281.200 210.459,281.284 210.364 C 281.368 210.270,280.897 209.774,280.238 209.264 L 279.038 208.335 280.084 209.436 M352.308 209.351 C 352.308 209.417,352.870 209.980,353.558 210.601 L 354.808 211.731 353.678 210.481 C 352.625 209.316,352.308 209.054,352.308 209.351 M48.596 212.692 C 48.596 214.490,48.662 215.226,48.743 214.327 C 48.824 213.428,48.824 211.957,48.743 211.058 C 48.662 210.159,48.596 210.894,48.596 212.692 M225.364 211.058 L 224.038 212.500 225.481 211.175 C 226.823 209.941,227.100 209.615,226.806 209.615 C 226.742 209.615,226.093 210.264,225.364 211.058 M190.937 211.250 L 189.808 212.500 191.058 211.370 C 192.223 210.317,192.484 210.000,192.187 210.000 C 192.121 210.000,191.559 210.563,190.937 211.250 M289.354 213.462 C 289.354 214.837,289.424 215.399,289.509 214.712 C 289.594 214.024,289.594 212.899,289.509 212.212 C 289.424 211.524,289.354 212.087,289.354 213.462 M115.482 214.038 C 115.486 214.885,115.565 215.185,115.657 214.707 C 115.749 214.229,115.745 213.536,115.649 213.169 C 115.553 212.801,115.477 213.192,115.482 214.038 M202.019 213.342 C 202.389 213.439,202.995 213.439,203.365 213.342 C 203.736 213.245,203.433 213.166,202.692 213.166 C 201.952 213.166,201.649 213.245,202.019 213.342 M342.019 213.342 C 342.389 213.439,342.995 213.439,343.365 213.342 C 343.736 213.245,343.433 213.166,342.692 213.166 C 341.952 213.166,341.649 213.245,342.019 213.342 M209.231 218.013 C 209.231 218.335,207.299 218.486,202.404 218.548 L 195.577 218.634 202.279 218.750 C 208.507 218.857,210.295 218.628,209.494 217.827 C 209.349 217.682,209.231 217.766,209.231 218.013 M289.354 220.000 C 289.354 221.375,289.424 221.938,289.509 221.250 C 289.594 220.563,289.594 219.438,289.509 218.750 C 289.424 218.063,289.354 218.625,289.354 220.000 M335.720 218.567 C 335.884 218.731,339.035 218.817,342.721 218.758 L 349.423 218.652 342.422 218.461 C 338.572 218.355,335.556 218.403,335.720 218.567 M357.819 221.731 C 357.820 223.212,357.890 223.770,357.973 222.972 C 358.056 222.174,358.055 220.963,357.970 220.280 C 357.885 219.597,357.817 220.250,357.819 221.731 M257.046 221.923 C 257.046 223.298,257.116 223.861,257.201 223.173 C 257.287 222.486,257.287 221.361,257.201 220.673 C 257.116 219.986,257.046 220.548,257.046 221.923 M265.858 221.923 C 265.858 222.663,265.938 222.966,266.034 222.596 C 266.131 222.226,266.131 221.620,266.034 221.250 C 265.938 220.880,265.858 221.183,265.858 221.923 M201.635 224.903 C 204.543 224.968,209.303 224.968,212.212 224.903 C 215.120 224.838,212.740 224.784,206.923 224.784 C 201.106 224.784,198.726 224.838,201.635 224.903 M335.384 224.904 C 335.384 225.063,338.629 225.148,342.596 225.094 C 356.221 224.908,357.482 224.777,346.442 224.696 C 340.361 224.652,335.384 224.745,335.384 224.904 M54.413 227.788 L 51.731 230.577 54.519 227.895 C 57.109 225.404,57.483 225.000,57.201 225.000 C 57.143 225.000,55.888 226.255,54.413 227.788 M350.769 227.192 C 351.087 227.307,352.038 228.029,352.885 228.797 L 354.423 230.192 352.903 228.558 C 352.067 227.659,351.115 226.937,350.787 226.953 C 350.271 226.980,350.268 227.011,350.769 227.192 M70.474 228.462 C 70.474 229.202,70.553 229.505,70.650 229.135 C 70.746 228.764,70.746 228.159,70.650 227.788 C 70.553 227.418,70.474 227.721,70.474 228.462 M66.648 230.192 C 66.651 231.250,66.726 231.637,66.814 231.052 C 66.903 230.468,66.900 229.602,66.809 229.129 C 66.718 228.656,66.646 229.135,66.648 230.192 M236.640 229.507 C 237.225 229.595,238.090 229.593,238.563 229.502 C 239.036 229.410,238.558 229.338,237.500 229.341 C 236.442 229.344,236.055 229.418,236.640 229.507 M272.596 229.502 C 273.072 229.594,273.851 229.594,274.327 229.502 C 274.803 229.411,274.413 229.336,273.462 229.336 C 272.510 229.336,272.120 229.411,272.596 229.502 M307.981 229.502 C 308.457 229.594,309.236 229.594,309.712 229.502 C 310.188 229.411,309.798 229.336,308.846 229.336 C 307.894 229.336,307.505 229.411,307.981 229.502 M202.794 230.276 C 203.378 230.364,204.244 230.362,204.717 230.271 C 205.190 230.179,204.712 230.107,203.654 230.110 C 202.596 230.113,202.209 230.188,202.794 230.276 M342.409 230.276 C 342.994 230.364,343.859 230.362,344.332 230.271 C 344.805 230.179,344.327 230.107,343.269 230.110 C 342.212 230.113,341.824 230.188,342.409 230.276 M156.320 234.231 L 156.346 236.731 170.385 236.738 L 184.423 236.745 170.498 236.637 L 156.573 236.529 156.433 234.130 L 156.294 231.731 156.320 234.231 M214.979 232.981 L 213.654 234.423 215.096 233.098 C 216.439 231.864,216.715 231.538,216.422 231.538 C 216.357 231.538,215.708 232.188,214.979 232.981 M225.385 232.885 C 226.102 233.625,226.776 234.231,226.882 234.231 C 226.987 234.231,226.487 233.625,225.769 232.885 C 225.052 232.144,224.378 231.538,224.272 231.538 C 224.166 231.538,224.667 232.144,225.385 232.885 M70.489 233.846 C 70.489 234.798,70.564 235.188,70.656 234.712 C 70.748 234.236,70.748 233.457,70.656 232.981 C 70.564 232.505,70.489 232.894,70.489 233.846 M280.675 234.808 C 280.776 235.337,280.925 235.769,281.006 235.769 C 281.087 235.769,281.154 235.337,281.154 234.808 C 281.154 234.279,281.005 233.846,280.823 233.846 C 280.640 233.846,280.574 234.279,280.675 234.808 M253.506 235.455 C 253.471 236.271,253.240 236.521,252.404 236.648 L 251.346 236.808 252.416 236.865 C 253.554 236.927,254.034 236.289,253.731 235.119 C 253.610 234.653,253.536 234.764,253.506 235.455 M289.328 236.346 C 289.332 237.192,289.411 237.493,289.503 237.015 C 289.595 236.536,289.591 235.844,289.495 235.476 C 289.399 235.109,289.323 235.500,289.328 236.346 M202.212 237.586 C 202.899 237.671,204.024 237.671,204.712 237.586 C 205.399 237.501,204.837 237.431,203.462 237.431 C 202.087 237.431,201.524 237.501,202.212 237.586 M307.603 237.586 C 308.294 237.672,309.333 237.670,309.911 237.583 C 310.489 237.495,309.923 237.425,308.654 237.427 C 307.385 237.429,306.912 237.501,307.603 237.586 M341.818 237.585 C 342.501 237.670,343.713 237.672,344.511 237.588 C 345.309 237.505,344.750 237.436,343.269 237.434 C 341.788 237.432,341.136 237.500,341.818 237.585 M117.091 241.250 L 115.962 242.500 117.212 241.370 C 118.377 240.317,118.638 240.000,118.341 240.000 C 118.275 240.000,117.712 240.563,117.091 241.250 M114.014 244.327 L 112.885 245.577 114.135 244.447 C 115.300 243.394,115.561 243.077,115.264 243.077 C 115.198 243.077,114.636 243.639,114.014 244.327 M110.814 245.843 C 110.748 246.798,111.373 247.014,111.976 246.246 C 112.444 245.648,112.432 245.630,111.859 246.078 C 111.316 246.503,111.191 246.474,111.038 245.886 C 110.882 245.283,110.853 245.277,110.814 245.843 M86.250 248.727 C 86.620 248.823,87.226 248.823,87.596 248.727 C 87.966 248.630,87.663 248.551,86.923 248.551 C 86.183 248.551,85.880 248.630,86.250 248.727 M271.434 251.047 C 272.117 251.132,273.328 251.133,274.126 251.050 C 274.924 250.967,274.365 250.897,272.885 250.895 C 271.404 250.894,270.751 250.962,271.434 251.047 M1.021 384.327 C 1.119 384.486,90.660 384.615,200.000 384.615 C 309.340 384.615,398.881 384.486,398.979 384.327 C 399.077 384.168,309.537 384.038,200.000 384.038 C 90.463 384.038,0.923 384.168,1.021 384.327 " stroke="none" fill="#706773" fill-rule="evenodd"></path><path id="path3" d="M0.563 0.865 C 0.462 1.130,0.425 87.538,0.479 192.885 L 0.578 384.423 0.673 192.596 L 0.769 0.769 200.000 0.769 L 399.230 0.769 399.327 192.596 L 399.424 384.423 399.424 192.500 L 399.423 0.577 200.084 0.480 C 40.814 0.403,0.709 0.481,0.563 0.865 M106.322 132.019 L 105.192 133.269 106.442 132.140 C 107.130 131.518,107.692 130.956,107.692 130.890 C 107.692 130.592,107.375 130.854,106.322 132.019 M77.592 136.153 C 78.310 136.931,78.533 136.999,78.938 136.563 C 79.330 136.141,79.326 136.096,78.918 136.327 C 78.628 136.492,78.054 136.317,77.572 135.917 C 76.749 135.236,76.750 135.242,77.592 136.153 M87.212 140.656 C 87.688 140.748,88.466 140.748,88.942 140.656 C 89.418 140.564,89.029 140.489,88.077 140.489 C 87.125 140.489,86.736 140.564,87.212 140.656 M95.288 140.656 C 95.764 140.748,96.543 140.748,97.019 140.656 C 97.495 140.564,97.106 140.489,96.154 140.489 C 95.202 140.489,94.813 140.564,95.288 140.656 M171.250 144.496 C 171.620 144.593,172.226 144.593,172.596 144.496 C 172.966 144.399,172.663 144.320,171.923 144.320 C 171.183 144.320,170.880 144.399,171.250 144.496 M156.716 162.115 C 156.716 171.846,156.766 175.772,156.827 170.839 C 156.888 165.906,156.887 157.945,156.826 153.147 C 156.765 148.349,156.716 152.385,156.716 162.115 M100.042 146.635 C 100.135 146.688,101.332 147.769,102.702 149.038 L 105.192 151.346 102.897 148.942 C 101.634 147.620,100.437 146.538,100.236 146.538 C 100.036 146.538,99.948 146.582,100.042 146.635 M182.308 147.813 C 182.308 147.879,182.870 148.441,183.558 149.063 L 184.808 150.192 183.678 148.942 C 182.625 147.777,182.308 147.516,182.308 147.813 M115.925 151.213 C 115.755 151.488,115.819 151.553,116.094 151.383 C 116.339 151.232,116.538 151.273,116.538 151.475 C 116.538 151.676,116.832 151.953,117.190 152.091 C 117.761 152.310,117.754 152.244,117.130 151.555 C 116.300 150.637,116.284 150.633,115.925 151.213 M60.559 153.558 L 59.038 155.192 60.673 153.672 C 62.193 152.258,62.484 151.923,62.193 151.923 C 62.131 151.923,61.395 152.659,60.559 153.558 M190.945 159.328 C 190.843 159.594,190.805 166.214,190.861 174.040 L 190.962 188.269 192.885 188.299 L 194.808 188.329 192.981 188.183 L 191.154 188.037 191.154 173.649 L 191.154 159.261 194.519 159.133 L 197.885 159.004 194.507 158.925 C 192.093 158.869,191.077 158.984,190.945 159.328 M244.406 159.328 C 243.718 161.121,244.454 188.262,245.192 188.338 C 245.790 188.400,245.812 188.373,245.288 188.219 C 244.663 188.035,244.615 187.004,244.615 173.641 L 244.615 159.261 247.981 159.133 L 251.346 159.004 247.969 158.925 C 245.555 158.869,244.538 158.984,244.406 159.328 M295.301 159.130 C 296.419 159.208,298.150 159.207,299.148 159.128 C 300.145 159.049,299.231 158.986,297.115 158.987 C 295.000 158.988,294.184 159.052,295.301 159.130 M339.406 159.328 C 339.304 159.594,339.269 166.214,339.327 174.040 L 339.433 188.269 339.524 173.765 L 339.615 159.261 342.981 159.133 L 346.346 159.004 342.969 158.925 C 340.555 158.869,339.538 158.984,339.406 159.328 M357.387 162.385 L 357.308 166.117 354.904 166.254 L 352.500 166.390 354.916 166.464 C 357.812 166.553,357.766 166.628,357.595 162.085 L 357.466 158.654 357.387 162.385 M292.777 173.750 C 292.730 181.841,292.822 188.462,292.981 188.462 C 293.243 188.462,293.237 177.416,292.967 164.231 C 292.909 161.375,292.823 165.659,292.777 173.750 M208.961 161.538 C 208.961 162.702,209.034 163.178,209.122 162.596 C 209.210 162.014,209.210 161.063,209.122 160.481 C 209.034 159.899,208.961 160.375,208.961 161.538 M235.962 162.692 C 236.788 163.538,237.550 164.231,237.656 164.231 C 237.762 164.231,237.172 163.538,236.346 162.692 C 235.520 161.846,234.757 161.154,234.652 161.154 C 234.546 161.154,235.135 161.846,235.962 162.692 M54.210 163.365 L 52.885 164.808 54.327 163.482 C 55.120 162.753,55.769 162.104,55.769 162.040 C 55.769 161.746,55.444 162.023,54.210 163.365 M224.519 165.271 C 224.995 165.363,225.774 165.363,226.250 165.271 C 226.726 165.180,226.337 165.105,225.385 165.105 C 224.433 165.105,224.043 165.180,224.519 165.271 M167.404 166.052 C 168.409 166.131,170.053 166.131,171.058 166.052 C 172.063 165.973,171.240 165.908,169.231 165.908 C 167.221 165.908,166.399 165.973,167.404 166.052 M205.288 166.432 C 205.976 166.517,207.101 166.517,207.788 166.432 C 208.476 166.347,207.913 166.277,206.538 166.277 C 205.163 166.277,204.601 166.347,205.288 166.432 M183.056 169.519 L 181.731 170.962 183.173 169.636 C 183.966 168.907,184.615 168.258,184.615 168.194 C 184.615 167.900,184.290 168.177,183.056 169.519 M115.385 170.192 C 116.102 170.933,116.776 171.538,116.882 171.538 C 116.987 171.538,116.487 170.933,115.769 170.192 C 115.052 169.452,114.378 168.846,114.272 168.846 C 114.166 168.846,114.667 169.452,115.385 170.192 M288.241 177.308 C 288.241 182.067,288.297 184.014,288.364 181.635 C 288.432 179.255,288.432 175.361,288.364 172.981 C 288.297 170.601,288.241 172.548,288.241 177.308 M90.293 169.887 C 90.771 169.979,91.464 169.976,91.831 169.880 C 92.199 169.783,91.808 169.708,90.962 169.712 C 90.115 169.717,89.815 169.795,90.293 169.887 M262.088 179.038 C 262.088 183.904,262.143 185.841,262.210 183.344 C 262.278 180.846,262.277 176.865,262.210 174.498 C 262.143 172.130,262.088 174.173,262.088 179.038 M123.630 173.365 C 124.806 174.667,125.385 174.931,125.385 174.167 C 125.385 173.920,125.267 173.836,125.123 173.980 C 124.979 174.124,124.330 173.763,123.681 173.178 L 122.500 172.115 123.630 173.365 M199.010 180.385 C 199.010 184.933,199.065 186.793,199.133 184.519 C 199.201 182.245,199.201 178.524,199.133 176.250 C 199.065 173.976,199.010 175.837,199.010 180.385 M240.482 173.654 C 240.486 174.500,240.565 174.801,240.657 174.322 C 240.749 173.844,240.745 173.152,240.649 172.784 C 240.553 172.416,240.477 172.808,240.482 173.654 M252.456 176.923 C 252.456 179.567,252.517 180.649,252.592 179.327 C 252.668 178.005,252.668 175.841,252.592 174.519 C 252.517 173.197,252.456 174.279,252.456 176.923 M115.096 175.660 C 115.678 175.748,116.630 175.748,117.212 175.660 C 117.793 175.572,117.317 175.500,116.154 175.500 C 114.990 175.500,114.514 175.572,115.096 175.660 M89.135 177.207 C 90.245 177.284,92.063 177.284,93.173 177.207 C 94.284 177.129,93.375 177.065,91.154 177.065 C 88.933 177.065,88.024 177.129,89.135 177.207 M98.942 177.188 C 99.313 177.285,99.918 177.285,100.288 177.188 C 100.659 177.091,100.356 177.012,99.615 177.012 C 98.875 177.012,98.572 177.091,98.942 177.188 M252.440 185.577 C 252.441 187.269,252.509 187.914,252.590 187.009 C 252.671 186.104,252.670 184.720,252.587 183.932 C 252.505 183.144,252.438 183.885,252.440 185.577 M156.662 186.154 C 156.662 187.529,156.731 188.091,156.817 187.404 C 156.902 186.716,156.902 185.591,156.817 184.904 C 156.731 184.216,156.662 184.779,156.662 186.154 M115.462 189.058 C 115.419 190.761,115.212 192.362,115.001 192.617 C 114.791 192.871,114.885 192.849,115.211 192.566 C 115.675 192.164,115.775 191.393,115.672 189.007 L 115.539 185.962 115.462 189.058 M224.911 189.125 C 225.602 189.210,226.640 189.209,227.218 189.121 C 227.796 189.033,227.231 188.963,225.962 188.965 C 224.692 188.967,224.219 189.039,224.911 189.125 M119.705 191.154 C 119.705 191.894,119.784 192.197,119.881 191.827 C 119.977 191.457,119.977 190.851,119.881 190.481 C 119.784 190.111,119.705 190.413,119.705 191.154 M120.000 192.813 C 120.000 192.879,120.563 193.441,121.250 194.063 L 122.500 195.192 121.370 193.942 C 120.317 192.777,120.000 192.516,120.000 192.813 M158.765 193.747 C 160.095 193.822,162.172 193.821,163.380 193.745 C 164.589 193.669,163.500 193.608,160.962 193.608 C 158.423 193.609,157.435 193.671,158.765 193.747 M156.689 201.538 C 156.689 204.394,156.750 205.563,156.824 204.135 C 156.898 202.707,156.898 200.370,156.824 198.942 C 156.750 197.514,156.689 198.683,156.689 201.538 M135.495 201.731 C 135.498 202.788,135.572 203.176,135.661 202.591 C 135.749 202.006,135.747 201.141,135.655 200.668 C 135.564 200.195,135.492 200.673,135.495 201.731 M138.572 201.731 C 138.574 202.788,138.649 203.176,138.738 202.591 C 138.826 202.006,138.824 201.141,138.732 200.668 C 138.641 200.195,138.569 200.673,138.572 201.731 M48.551 207.692 C 48.551 208.433,48.630 208.736,48.727 208.365 C 48.823 207.995,48.823 207.389,48.727 207.019 C 48.630 206.649,48.551 206.952,48.551 207.692 M246.410 207.179 C 246.269 207.321,246.156 207.623,246.160 207.853 C 246.163 208.112,246.277 208.093,246.461 207.805 C 246.645 207.516,248.059 207.291,250.205 207.211 L 253.654 207.081 250.160 207.002 C 248.239 206.959,246.551 207.038,246.410 207.179 M282.174 207.212 C 282.075 207.370,283.146 207.452,284.555 207.394 C 289.016 207.209,289.540 207.048,285.888 206.985 C 283.944 206.951,282.272 207.053,282.174 207.212 M297.781 207.203 L 301.909 207.334 302.023 215.975 L 302.138 224.616 302.126 215.866 L 302.115 207.115 297.885 207.094 L 293.654 207.072 297.781 207.203 M319.127 207.203 L 323.062 207.334 323.177 215.686 L 323.291 224.038 323.280 215.577 L 323.269 207.115 319.231 207.093 L 315.192 207.071 319.127 207.203 M138.559 208.654 C 138.563 209.500,138.642 209.801,138.734 209.322 C 138.826 208.844,138.822 208.152,138.726 207.784 C 138.630 207.416,138.554 207.808,138.559 208.654 M353.077 210.577 C 353.795 211.317,354.468 211.923,354.574 211.923 C 354.680 211.923,354.179 211.317,353.462 210.577 C 352.744 209.837,352.070 209.231,351.964 209.231 C 351.859 209.231,352.359 209.837,353.077 210.577 M44.754 213.462 C 44.754 215.471,44.819 216.293,44.898 215.288 C 44.977 214.284,44.977 212.639,44.898 211.635 C 44.819 210.630,44.754 211.452,44.754 213.462 M236.640 214.122 C 237.225 214.211,238.090 214.208,238.563 214.117 C 239.036 214.026,238.558 213.953,237.500 213.956 C 236.442 213.959,236.055 214.034,236.640 214.122 M272.404 214.122 C 272.986 214.210,273.938 214.210,274.519 214.122 C 275.101 214.034,274.625 213.961,273.462 213.961 C 272.298 213.961,271.822 214.034,272.404 214.122 M117.114 215.386 C 116.307 216.229,115.926 216.410,115.702 216.059 C 115.478 215.706,115.395 215.700,115.391 216.035 C 115.378 217.012,116.085 216.838,117.322 215.562 C 118.032 214.830,118.524 214.231,118.417 214.231 C 118.309 214.231,117.723 214.750,117.114 215.386 M48.559 217.500 C 48.563 218.346,48.642 218.647,48.734 218.169 C 48.826 217.690,48.822 216.998,48.726 216.630 C 48.630 216.262,48.554 216.654,48.559 217.500 M348.667 216.472 C 348.811 216.753,349.068 217.446,349.239 218.011 C 349.488 218.835,349.556 218.882,349.582 218.247 C 349.601 217.811,349.343 217.119,349.010 216.708 C 348.677 216.298,348.522 216.191,348.667 216.472 M217.802 221.731 C 217.805 222.788,217.880 223.176,217.968 222.591 C 218.057 222.006,218.054 221.141,217.963 220.668 C 217.872 220.195,217.799 220.673,217.802 221.731 M187.028 221.923 C 187.028 222.875,187.103 223.264,187.195 222.788 C 187.286 222.313,187.286 221.534,187.195 221.058 C 187.103 220.582,187.028 220.971,187.028 221.923 M221.259 221.923 C 221.259 222.875,221.334 223.264,221.425 222.788 C 221.517 222.313,221.517 221.534,221.425 221.058 C 221.334 220.582,221.259 220.971,221.259 221.923 M130.538 222.788 C 130.386 223.053,130.406 223.138,130.583 222.977 C 130.760 222.817,131.350 223.076,131.895 223.554 L 132.885 224.423 131.952 223.365 C 130.877 222.145,130.902 222.156,130.538 222.788 M195.641 224.487 C 195.500 224.628,195.387 224.931,195.391 225.160 C 195.394 225.412,195.516 225.389,195.698 225.102 C 195.923 224.748,198.782 224.600,206.942 224.519 L 217.885 224.411 206.891 224.321 C 200.845 224.271,195.782 224.346,195.641 224.487 M340.073 224.518 C 342.758 224.584,347.258 224.584,350.073 224.518 C 352.889 224.453,350.692 224.399,345.192 224.398 C 339.692 224.398,337.389 224.452,340.073 224.518 M70.089 226.154 C 70.089 226.894,70.168 227.197,70.265 226.827 C 70.362 226.457,70.362 225.851,70.265 225.481 C 70.168 225.111,70.089 225.413,70.089 226.154 M54.218 228.365 L 52.115 230.577 54.327 228.475 C 55.543 227.318,56.538 226.323,56.538 226.263 C 56.538 225.978,56.171 226.311,54.218 228.365 M242.860 227.404 L 241.731 228.654 242.981 227.524 C 244.146 226.471,244.408 226.154,244.110 226.154 C 244.044 226.154,243.482 226.716,242.860 227.404 M253.588 228.654 C 253.589 230.135,253.659 230.693,253.742 229.895 C 253.825 229.097,253.824 227.886,253.739 227.203 C 253.654 226.520,253.586 227.173,253.588 228.654 M56.334 231.635 L 54.038 234.038 56.442 231.743 C 58.675 229.610,59.022 229.231,58.738 229.231 C 58.678 229.231,57.597 230.313,56.334 231.635 M190.385 231.659 C 190.385 231.725,190.947 232.288,191.635 232.909 L 192.885 234.038 191.755 232.788 C 190.702 231.623,190.385 231.362,190.385 231.659 M354.648 232.839 L 353.720 234.038 354.820 232.992 C 355.426 232.417,355.843 231.877,355.749 231.793 C 355.654 231.709,355.159 232.180,354.648 232.839 M296.538 232.043 C 296.538 232.110,297.101 232.672,297.788 233.293 L 299.038 234.423 297.909 233.173 C 296.856 232.008,296.538 231.746,296.538 232.043 M319.399 233.173 L 318.269 234.423 319.519 233.293 C 320.207 232.672,320.769 232.110,320.769 232.043 C 320.769 231.746,320.452 232.008,319.399 233.173 M70.089 236.538 C 70.089 237.279,70.168 237.582,70.265 237.212 C 70.362 236.841,70.362 236.236,70.265 235.865 C 70.168 235.495,70.089 235.798,70.089 236.538 M235.096 237.199 C 235.678 237.287,236.630 237.287,237.212 237.199 C 237.793 237.110,237.317 237.038,236.154 237.038 C 234.990 237.038,234.514 237.110,235.096 237.199 M271.442 237.195 C 271.918 237.286,272.697 237.286,273.173 237.195 C 273.649 237.103,273.260 237.028,272.308 237.028 C 271.356 237.028,270.966 237.103,271.442 237.195 M307.222 237.205 C 308.126 237.286,309.511 237.285,310.299 237.203 C 311.086 237.120,310.346 237.054,308.654 237.055 C 306.962 237.056,306.317 237.124,307.222 237.205 M115.769 242.885 C 114.835 243.837,114.157 244.615,114.263 244.615 C 114.369 244.615,115.220 243.837,116.154 242.885 C 117.088 241.933,117.766 241.154,117.660 241.154 C 117.554 241.154,116.703 241.933,115.769 242.885 M118.441 245.673 L 117.115 247.115 118.558 245.790 C 119.900 244.556,120.177 244.231,119.883 244.231 C 119.819 244.231,119.170 244.880,118.441 245.673 M83.173 249.111 C 83.543 249.208,84.149 249.208,84.519 249.111 C 84.889 249.015,84.587 248.935,83.846 248.935 C 83.106 248.935,82.803 249.015,83.173 249.111 M82.588 252.970 C 83.270 253.055,84.482 253.056,85.280 252.973 C 86.078 252.890,85.519 252.820,84.038 252.819 C 82.558 252.817,81.905 252.885,82.588 252.970 " stroke="none" fill="#8c848c" fill-rule="evenodd"></path><path id="path4" d="M160.461 144.517 C 162.302 144.587,165.417 144.588,167.384 144.518 C 169.352 144.448,167.846 144.390,164.038 144.390 C 160.231 144.389,158.621 144.447,160.461 144.517 M165.495 155.192 C 165.498 156.250,165.572 156.637,165.661 156.052 C 165.749 155.468,165.747 154.602,165.655 154.129 C 165.564 153.656,165.492 154.135,165.495 155.192 M301.280 165.962 C 301.282 167.442,301.351 168.001,301.435 167.203 C 301.518 166.405,301.516 165.193,301.431 164.511 C 301.346 163.828,301.278 164.481,301.280 165.962 M270.482 172.500 C 270.486 173.346,270.565 173.647,270.657 173.169 C 270.749 172.690,270.745 171.998,270.649 171.630 C 270.553 171.262,270.477 171.654,270.482 172.500 M165.508 177.308 C 165.508 178.683,165.578 179.245,165.663 178.558 C 165.748 177.870,165.748 176.745,165.663 176.058 C 165.578 175.370,165.508 175.933,165.508 177.308 M270.536 181.346 C 270.537 184.308,270.597 185.468,270.671 183.925 C 270.744 182.383,270.743 179.959,270.669 178.541 C 270.596 177.122,270.536 178.385,270.536 181.346 M95.871 177.199 C 96.455 177.287,97.321 177.285,97.794 177.194 C 98.267 177.103,97.788 177.030,96.731 177.033 C 95.673 177.036,95.286 177.111,95.871 177.199 M301.243 181.154 C 301.243 181.894,301.322 182.197,301.419 181.827 C 301.516 181.457,301.516 180.851,301.419 180.481 C 301.322 180.111,301.243 180.413,301.243 181.154 M119.705 188.846 C 119.705 189.587,119.784 189.889,119.881 189.519 C 119.977 189.149,119.977 188.543,119.881 188.173 C 119.784 187.803,119.705 188.106,119.705 188.846 M289.346 209.231 C 289.346 210.394,289.418 210.870,289.506 210.288 C 289.594 209.707,289.594 208.755,289.506 208.173 C 289.418 207.591,289.346 208.067,289.346 209.231 M253.624 218.462 C 253.624 222.798,253.680 224.572,253.748 222.404 C 253.817 220.236,253.817 216.688,253.748 214.519 C 253.680 212.351,253.624 214.125,253.624 218.462 M289.388 228.654 C 289.388 232.250,289.446 233.773,289.517 232.038 C 289.588 230.303,289.588 227.361,289.517 225.500 C 289.447 223.638,289.389 225.058,289.388 228.654 M70.482 230.962 C 70.486 231.808,70.565 232.109,70.657 231.630 C 70.749 231.152,70.745 230.459,70.649 230.092 C 70.553 229.724,70.477 230.115,70.482 230.962 M253.572 232.885 C 253.574 233.942,253.649 234.329,253.738 233.745 C 253.826 233.160,253.824 232.295,253.732 231.822 C 253.641 231.349,253.569 231.827,253.572 232.885 " stroke="none" fill="#8c7c8c" fill-rule="evenodd"></path></g></svg>