<svg xmlns="http://www.w3.org/2000/svg" xmlns:xlink="http://www.w3.org/1999/xlink" width="59"
  height="52" viewBox="0 0 59 52">
  <defs>
    <linearGradient id="logo-a" x1="-3.406" y1="-7.014" x2="0.869" y2="0.749"
      gradientUnits="objectBoundingBox">
      <stop offset="0" stop-color="#25dfac"></stop>
      <stop offset="1" stop-color="#112f51"></stop>
    </linearGradient>
    <clipPath id="logo-b">
      <path
        d="M29.463,0h-26A3.467,3.467,0,0,0,.47,5.2l26,45.066a3.456,3.456,0,0,0,5.99,0l26-45.066A3.467,3.467,0,0,0,55.461,0Z"
        transform="translate(0 58.926) rotate(-90)" fill="#112f51"></path>
    </clipPath>
    <linearGradient id="logo-c" x1="0.163" y1="0.897" x2="1.538" gradientUnits="objectBoundingBox">
      <stop offset="0" stop-color="#112f51"></stop>
      <stop offset="1" stop-color="#cb3c88"></stop>
    </linearGradient>
    <linearGradient id="logo-d" x1="0.303" y1="1.147" x2="0.841" gradientUnits="objectBoundingBox">
      <stop offset="0" stop-color="#25dfac"></stop>
      <stop offset="1" stop-color="#16a17a"></stop>
    </linearGradient>
    <linearGradient id="logo-e" x1="0.416" y1="0.864" x2="0.947" y2="0.608" xlink:href="#logo-d"></linearGradient>
    <linearGradient id="logo-f" x1="0.498" y1="-0.106" x2="0.498" y2="0.863" xlink:href="#logo-c"></linearGradient>
    <linearGradient id="logo-g" x1="0.643" y1="0.689" x2="-0.019" y2="0.028"
      gradientUnits="objectBoundingBox">
      <stop offset="0" stop-color="#493362"></stop>
      <stop offset="1" stop-color="#283058"></stop>
    </linearGradient>
  </defs>
  <g transform="translate(-561 -434.932)">
    <g transform="translate(619.926 434.933) rotate(90)" clip-path="url(#logo-b)">
      <path d="M32.063,0,64.125,55.46H0Z" transform="translate(55.46 -2.6) rotate(90)"
        fill="url(#logo-c)"></path>
      <path d="M32.063,0,53.293,36.4s-11.657-2.147-21.231,0S0,55.46,0,55.46Z"
        transform="translate(55.46 -2.6) rotate(90)" fill="#25dfac" opacity="0.6"></path>
      <path
        d="M.036,42.251h0C.375,40.275,1.963,29.978,0,21.231c.041-.1.088-.366,0,0a51.281,51.281,0,0,0,.824-14.2A66.408,66.408,0,0,0,0,0L36.4,21.231.037,42.251Z"
        transform="translate(19.064 8.232)" opacity="0.6" fill="url(#logo-d)"></path>
      <path
        d="M19.064,32.063C16.917,22.489,0,0,0,0L19.1,11.043a68.3,68.3,0,0,1,.786,6.822,63.34,63.34,0,0,1,.1,6.85,40.64,40.64,0,0,1-.927,7.347Z"
        transform="translate(0 -2.6)" opacity="0.6" fill="url(#logo-e)"></path>
      <path d="M.036,21.02h0C.375,19.041,1.96,8.737,0,0H36.4L.037,21.02Z"
        transform="translate(19.064 29.463)" fill="#25dfac" opacity="0.5"></path>
      <path d="M0,32.063S16.867,9.552,19.064,0h0c1.978,8.818.347,19.384.037,21.019Z"
        transform="translate(0 29.463)" fill="url(#logo-f)"></path>
      <path
        d="M13.758,19.064,2.926,0A30.428,30.428,0,0,1,0,9.524C6.364,13.6,13.758,19.064,13.758,19.064Z"
        transform="translate(19.064 47.768) rotate(90)" fill="#112f51" opacity="0.15"></path>
      <path
        d="M4.1,9.377v0A40.64,40.64,0,0,0,.032,0C3.5,2.014,15.478,8.943,15.478,8.943a.509.509,0,0,1,0,.866L0,18.775A40.859,40.859,0,0,0,4.1,9.377Z"
        transform="translate(14.862 20.087)" opacity="0.85" fill="url(#logo-g)"></path>
    </g>


  </g>
</svg>