<svg viewBox="0 0 30 30" fill="none" xmlns="http://www.w3.org/2000/svg">
<path d="M0 0H30V30H0V0Z" fill="#EF8401"/>
<path d="M6 6.84615C6 6.13101 6.58894 5.5 7.34615 5.5C16.9796 5.5 24.8462 13.3666 24.8462 23C24.8462 23.7572 24.2151 24.3462 23.5 24.3462C22.7428 24.3462 22.1538 23.7572 22.1538 23C22.1538 14.8389 15.5072 8.19231 7.34615 8.19231C6.58894 8.19231 6 7.60337 6 6.84615ZM6 21.6538C6 20.7284 6.50481 19.845 7.34615 19.3401C8.14543 18.8774 9.19712 18.8774 10.0385 19.3401C10.8377 19.845 11.3846 20.7284 11.3846 21.6538C11.3846 22.6214 10.8377 23.5048 10.0385 24.0096C9.19712 24.4724 8.14543 24.4724 7.34615 24.0096C6.50481 23.5048 6 22.6214 6 21.6538ZM7.34615 10.8846C14.0349 10.8846 19.4615 16.3113 19.4615 23C19.4615 23.7572 18.8305 24.3462 18.1154 24.3462C17.3582 24.3462 16.7692 23.7572 16.7692 23C16.7692 17.8257 12.5204 13.5769 7.34615 13.5769C6.58894 13.5769 6 12.988 6 12.2308C6 11.5156 6.58894 10.8846 7.34615 10.8846Z" fill="white"/>
</svg>
